<?xml version="1.0" standalone="no"?>
<!DOCTYPE svg PUBLIC "-//W3C//DTD SVG 20010904//EN"
 "http://www.w3.org/TR/2001/REC-SVG-20010904/DTD/svg10.dtd">
<svg version="1.0" xmlns="http://www.w3.org/2000/svg"
 width="1080.000000pt" height="1080.000000pt" viewBox="0 0 1080.000000 1080.000000"
 preserveAspectRatio="xMidYMid meet">

<g transform="translate(0.000000,1080.000000) scale(0.100000,-0.100000)"
fill="#000000" stroke="none">
<path d="M5633 9018 c-57 -15 -81 -78 -48 -125 8 -12 25 -23 37 -25 23 -3 58
-52 46 -63 -4 -4 -27 7 -52 24 -24 17 -47 31 -49 31 -3 0 1 -20 9 -45 8 -27
11 -65 7 -95 -5 -47 -7 -50 -23 -35 -10 9 -21 37 -25 62 -4 25 -20 74 -37 108
-24 49 -35 61 -49 58 -24 -7 -79 -69 -79 -88 0 -11 -12 -15 -40 -15 -47 0 -78
-25 -87 -71 -4 -21 -11 -29 -22 -27 -13 3 -15 14 -13 52 3 48 3 48 -24 42 -15
-4 -45 -21 -65 -37 -29 -23 -39 -38 -41 -66 -2 -20 -7 -38 -13 -40 -5 -1 -23
29 -39 67 -17 39 -33 70 -37 70 -4 0 -10 17 -13 38 -4 20 -11 60 -17 88 l-10
52 -38 -10 c-25 -6 -76 -41 -145 -99 -59 -49 -109 -89 -112 -89 -4 0 -3 7 0
16 11 29 -5 36 -30 13 -22 -21 -23 -24 -8 -40 17 -19 5 -33 -20 -23 -16 6 -28
34 -24 55 4 17 -39 24 -56 9 -8 -6 -17 -30 -20 -54 -4 -27 -17 -54 -32 -69
-30 -30 -81 -40 -94 -18 -12 23 -62 3 -78 -33 -10 -20 -17 -25 -25 -17 -15 15
-50 14 -65 -1 -9 -9 -12 -6 -12 15 0 21 9 33 35 48 19 12 32 25 29 30 -11 18
-45 8 -81 -25 -56 -49 -75 -56 -150 -53 -67 2 -69 1 -136 -46 -133 -93 -197
-113 -290 -94 l-38 8 3 -35 c2 -36 -15 -66 -38 -66 -7 0 -16 -9 -19 -21 -5
-16 -14 -20 -43 -17 -28 2 -39 10 -52 33 -9 17 -28 37 -43 45 -24 13 -28 13
-43 -2 -19 -19 -53 -183 -54 -260 0 -53 -23 -78 -72 -78 -15 0 -39 -11 -54
-24 -23 -19 -29 -34 -35 -89 -6 -58 -11 -72 -44 -108 -32 -35 -36 -46 -30 -73
18 -84 17 -92 -20 -186 -75 -189 -169 -355 -279 -490 -52 -65 -146 -234 -146
-264 0 -12 11 -39 25 -61 22 -36 24 -51 25 -150 0 -130 -6 -159 -29 -150 -9 4
-22 9 -28 12 -22 9 -27 -26 -7 -48 20 -22 22 -15 -57 -234 -38 -106 -44 -209
-16 -262 9 -18 17 -46 17 -63 0 -18 6 -33 15 -36 20 -8 25 -30 35 -153 4 -62
14 -122 23 -140 8 -17 13 -40 10 -51 -3 -11 8 -47 25 -82 33 -69 95 -297 107
-391 3 -32 12 -60 18 -62 7 -2 24 -6 38 -9 21 -5 36 -23 68 -85 61 -118 53
-143 -36 -106 -47 20 -86 19 -106 -3 -45 -49 -58 -205 -32 -396 19 -142 39
-210 80 -271 18 -27 43 -76 55 -107 34 -91 120 -163 106 -88 -3 16 -8 43 -12
59 -3 16 -16 39 -30 51 -13 13 -24 29 -24 36 0 14 28 27 41 18 16 -9 39 11 62
56 32 64 47 63 47 -3 0 -41 5 -58 20 -72 27 -25 25 -57 -6 -84 -23 -20 -26
-28 -21 -69 4 -35 12 -52 33 -68 23 -19 26 -25 15 -38 -24 -29 -60 -20 -78 19
-19 39 -33 45 -33 14 0 -43 140 -197 242 -267 52 -36 145 -82 166 -82 6 0 12
10 12 22 0 12 5 37 12 55 14 39 15 39 111 -19 76 -46 127 -52 180 -21 41 24
67 67 50 84 -14 14 -173 38 -253 39 -61 0 -102 17 -132 55 -11 14 -52 40 -91
59 -40 18 -83 45 -96 59 l-24 26 27 11 c45 17 81 11 127 -20 49 -33 60 -35
122 -18 54 14 83 7 127 -32 42 -38 64 -38 102 0 16 17 35 30 43 30 19 0 55
-93 55 -144 0 -36 4 -46 20 -51 13 -4 20 -15 20 -33 0 -16 12 -39 32 -59 l32
-33 -34 -30 c-40 -35 -122 -80 -145 -80 -9 0 -41 13 -73 29 -73 36 -94 43
-111 32 -23 -15 3 -45 76 -88 162 -96 208 -105 309 -59 32 15 65 24 76 20 10
-3 29 -27 43 -54 13 -26 51 -81 84 -121 73 -91 306 -321 382 -377 30 -23 70
-60 88 -82 17 -22 55 -56 84 -75 29 -19 77 -52 107 -73 30 -21 96 -56 145 -78
50 -21 128 -59 175 -85 249 -134 472 -232 692 -304 122 -40 264 -88 313 -106
89 -33 91 -34 265 -33 212 0 281 15 444 99 153 79 241 134 397 247 224 163
293 222 352 299 31 41 97 115 148 164 136 133 222 264 286 435 19 49 23 75 18
108 -6 43 -7 43 -38 36 -63 -13 -55 -2 -140 -184 -62 -130 -114 -200 -192
-254 -36 -25 -68 -46 -71 -46 -3 0 -20 11 -37 24 -48 37 -259 98 -332 97 -39
-1 -96 9 -165 29 -127 36 -179 37 -320 5 -234 -52 -341 -61 -493 -39 -35 5
-63 2 -101 -11 -51 -17 -106 -15 -106 4 0 5 27 18 59 30 32 12 90 39 127 61
72 42 170 70 384 111 236 45 301 48 484 24 105 -14 119 -14 158 1 24 9 58 21
76 27 39 15 40 22 3 56 -39 36 -99 53 -197 55 -84 2 -91 4 -149 57 -16 16 -84
54 -150 85 -140 68 -192 75 -247 33 -29 -21 -47 -25 -144 -30 -99 -4 -119 -9
-176 -37 -77 -37 -144 -100 -222 -205 -56 -75 -87 -97 -122 -83 -24 9 -114
-41 -114 -64 0 -13 -9 -22 -27 -26 -16 -3 -39 -10 -52 -15 -15 -6 -27 -6 -36
1 -9 7 -16 6 -24 -4 -7 -8 -36 -30 -64 -48 -29 -18 -55 -36 -58 -41 -16 -22
-129 60 -207 151 -46 54 -62 80 -67 114 -10 64 -36 116 -99 201 -84 114 -196
191 -329 227 -43 12 -93 28 -110 35 -18 7 -63 16 -102 20 -45 5 -85 16 -112
31 -23 13 -50 24 -61 24 -21 0 -85 42 -156 103 -25 21 -80 54 -123 72 -43 18
-99 52 -125 74 -25 23 -52 41 -60 41 -22 0 -57 38 -64 68 -39 175 -135 391
-222 501 -82 104 -82 102 -83 358 -1 254 10 377 46 499 13 45 27 109 30 141 4
32 19 81 33 108 44 86 42 334 -3 351 -11 4 -9 13 8 42 14 24 24 62 28 110 4
57 11 78 29 97 28 30 37 31 45 5 3 -11 10 -20 14 -20 5 0 29 31 54 69 l46 70
-29 21 -30 22 21 30 22 31 19 -52 c11 -28 23 -51 27 -51 15 0 39 35 91 132 43
82 56 98 81 103 29 7 63 44 121 137 52 84 137 178 161 178 32 0 41 9 81 77 44
75 53 82 66 49 11 -29 31 -34 49 -12 7 8 26 18 42 21 16 4 37 17 47 30 11 14
43 31 83 42 51 15 68 26 87 54 13 18 27 35 32 37 16 6 50 -37 50 -63 0 -30 2
-30 75 -5 74 25 89 25 107 -2 14 -20 22 -22 84 -20 101 5 159 18 201 46 21 14
90 44 153 66 63 23 119 46 125 51 17 17 53 10 60 -11 6 -19 14 -16 123 39 64
33 120 57 124 55 4 -3 8 -13 8 -23 0 -10 9 -26 20 -36 18 -16 26 -17 74 -6 35
8 89 10 158 5 l106 -7 90 52 c88 50 92 52 116 36 14 -9 34 -33 46 -52 19 -33
24 -35 57 -30 43 7 54 22 42 54 -14 38 7 26 34 -19 26 -44 138 -158 155 -158
6 0 34 -20 63 -45 29 -25 60 -45 69 -45 23 0 180 -163 222 -230 19 -30 63
-108 99 -174 44 -82 74 -126 99 -144 68 -50 92 -78 127 -147 19 -38 59 -109
88 -156 118 -191 220 -443 290 -714 19 -71 52 -200 74 -287 24 -92 43 -195 47
-250 4 -51 10 -104 14 -118 l7 -25 12 30 c15 37 0 217 -21 261 -19 39 -13 194
8 194 20 0 34 -33 34 -78 0 -24 7 -49 18 -63 19 -22 19 -22 26 53 4 41 11 90
17 109 6 19 15 122 19 231 4 108 13 227 20 265 11 62 10 72 -9 116 -21 48 -26
51 -71 38 -17 -5 -31 -1 -45 11 -11 9 -28 23 -37 30 -16 12 -16 17 -1 83 13
57 14 81 5 125 -15 73 -2 138 32 165 22 17 26 29 26 72 0 35 -6 58 -20 76 -11
14 -20 40 -20 60 0 19 -7 40 -15 47 -11 9 -13 23 -9 49 8 48 -11 145 -37 194
l-20 40 21 22 c20 21 20 22 2 38 -10 9 -29 17 -42 17 -13 0 -21 3 -17 6 3 4
-7 26 -24 50 -30 44 -31 64 -4 64 8 0 22 11 31 25 11 17 26 25 48 26 17 0 40
4 51 8 19 8 19 9 -5 19 -14 6 -38 13 -53 17 -21 4 -29 13 -34 35 -3 16 -12 35
-19 41 -8 6 -14 20 -14 31 0 10 -20 37 -44 59 -25 23 -51 58 -60 79 -8 21 -20
41 -26 45 -15 9 -12 47 6 73 18 27 19 26 -21 39 -25 9 -30 15 -27 39 2 16 6
31 8 33 3 3 25 -1 51 -7 25 -7 48 -11 50 -8 9 9 -57 123 -89 152 -33 30 -131
103 -211 157 -23 15 -55 27 -73 27 -24 0 -48 13 -93 51 -41 34 -62 46 -66 37
-2 -7 -8 -28 -13 -47 -10 -42 -32 -54 -32 -18 0 41 -11 57 -37 57 -26 0 -27
-12 -7 -64 11 -30 -17 -16 -34 16 -9 18 -35 51 -56 73 -42 43 -59 78 -70 139
-6 33 -5 38 9 32 9 -3 25 -6 34 -6 10 0 55 -34 100 -75 73 -68 111 -90 111
-67 0 5 -9 17 -20 27 -26 23 -8 49 27 40 31 -7 30 15 -2 53 -27 33 -95 70
-150 82 -38 9 -156 -10 -178 -28 -11 -9 -16 -7 -25 12 -10 23 -9 25 16 28 36
4 36 32 0 36 -20 2 -28 -1 -28 -12 0 -19 -11 -21 -28 -4 -9 9 -7 14 6 24 15
11 15 15 2 39 -23 42 -65 60 -112 46 -48 -15 -62 -7 -54 32 3 16 1 36 -4 43
-8 8 -8 14 0 19 20 12 8 50 -33 110 -39 54 -47 60 -87 67 -25 3 -75 18 -113
32 -77 30 -167 35 -187 11 -7 -9 -9 -26 -5 -45 8 -38 -1 -38 -56 0 -24 16 -56
30 -70 30 -15 0 -38 9 -53 21 -20 16 -35 20 -60 15 -25 -5 -39 -1 -59 14 -29
23 -47 26 -47 6 0 -20 -20 -33 -71 -47 -63 -17 -87 -8 -160 60 -71 67 -80 71
-126 59z m875 -148 c17 -11 32 -22 32 -25 0 -10 -60 -35 -83 -35 -14 0 -35 8
-47 18 l-23 19 21 21 c27 27 57 28 100 2z m-1028 -102 c28 -58 39 -118 23
-118 -12 0 -43 33 -43 46 0 21 -30 44 -56 44 -38 0 -33 43 9 69 17 11 33 21
35 21 2 0 16 -28 32 -62z m1151 21 c17 -25 19 -33 8 -39 -27 -17 -68 23 -55
55 8 23 22 18 47 -16z m114 -339 c0 -15 -7 -26 -16 -28 -16 -3 -24 8 -40 61
l-8 28 32 -18 c22 -13 32 -27 32 -43z m-3001 -19 c17 -7 16 -9 -12 -30 -28
-19 -33 -20 -38 -7 -14 37 9 53 50 37z m3610 -353 c9 -34 7 -68 -3 -68 -5 0
-12 12 -15 28 -4 15 -9 35 -12 45 -3 11 0 17 9 17 8 0 17 -10 21 -22z m657
-2005 c42 -31 46 -40 25 -68 -12 -16 -16 -17 -30 -6 -9 7 -16 18 -16 24 0 6
-9 21 -21 33 -12 12 -18 27 -14 33 9 15 12 14 56 -16z m98 -159 c33 -27 44
-84 17 -84 -16 0 -66 70 -66 93 0 24 13 21 49 -9z m-5038 -1424 c14 -8 19 -21
19 -53 -1 -44 -38 -148 -56 -154 -16 -5 -44 53 -44 94 0 43 33 123 50 123 6 0
20 -5 31 -10z m433 -430 c35 -13 33 -44 -4 -70 l-30 -21 0 28 c0 15 -3 38 -6
51 -7 24 1 27 40 12z m2378 -1155 c-5 -38 -12 -41 -61 -24 -42 15 -39 35 7 47
57 15 58 15 54 -23z m-122 -80 c10 -12 6 -17 -22 -28 -18 -8 -34 -13 -36 -12
-1 1 3 14 9 29 14 29 31 33 49 11z m1245 -115 c28 -44 64 -66 124 -76 23 -4
41 -12 41 -19 0 -7 -23 -34 -52 -60 -77 -69 -437 -244 -528 -256 -330 -43
-333 -42 -472 30 -62 33 -117 66 -123 75 -7 12 0 25 30 57 44 45 83 68 165 94
30 10 102 42 160 72 155 79 329 118 542 122 l88 1 25 -40z"/>
<path d="M5653 6735 c9 -133 39 -303 103 -575 74 -313 103 -459 93 -465 -4 -3
-77 -19 -161 -36 -143 -28 -255 -66 -278 -94 -8 -9 -2 -16 20 -25 39 -16 188
-7 343 21 60 11 111 18 112 17 1 -2 23 -94 48 -205 45 -198 75 -280 115 -316
19 -17 20 -17 32 27 14 51 8 98 -46 350 -19 88 -31 163 -27 167 5 4 49 15 98
24 107 20 231 59 264 84 20 15 22 21 12 39 -6 11 -20 23 -31 27 -11 3 -97 -8
-192 -26 -154 -28 -173 -30 -183 -16 -6 9 -42 154 -79 323 -71 318 -176 712
-202 752 -8 12 -22 22 -31 22 -14 0 -15 -11 -10 -95z"/>
<path d="M7004 5576 c-83 -19 -157 -52 -186 -83 -21 -24 -21 -26 -3 -19 56 21
244 89 273 99 26 8 53 7 128 -8 96 -19 124 -17 82 6 -33 19 -219 22 -294 5z"/>
<path d="M7005 5461 c-90 -25 -240 -78 -286 -102 -20 -10 -49 -32 -63 -50 -38
-45 -88 -147 -84 -172 3 -20 10 -22 81 -25 42 -2 77 1 77 5 0 4 -16 22 -36 39
l-37 30 50 50 c58 58 125 93 146 76 8 -7 19 -31 26 -54 30 -98 87 -148 171
-148 43 0 53 7 109 83 31 41 45 70 48 101 5 42 7 44 30 35 18 -7 30 -4 51 11
15 11 49 24 76 29 53 10 76 30 76 67 0 30 -19 34 -205 39 -138 5 -170 3 -230
-14z"/>
<path d="M5065 5204 c-149 -17 -308 -65 -444 -134 -87 -44 -142 -93 -123 -112
9 -9 40 2 131 45 278 132 410 171 555 165 53 -2 106 -11 126 -20 l35 -15 -45
-6 c-184 -23 -235 -31 -333 -57 -62 -15 -171 -53 -243 -84 -87 -37 -156 -59
-203 -66 -80 -11 -97 -18 -125 -49 -34 -38 -10 -46 127 -43 73 1 133 -2 149
-9 25 -10 36 -6 120 50 215 141 210 140 238 57 54 -163 124 -180 365 -89 115
43 130 52 133 74 4 32 -103 188 -143 209 -16 8 -37 25 -47 36 -12 15 -38 25
-80 32 -81 14 -155 20 -193 16z"/>
<path d="M6441 4086 c-26 -27 -69 -34 -88 -15 -8 8 -20 6 -44 -6 -32 -17 -43
-17 -171 2 -34 5 -37 3 -49 -31 -11 -30 -17 -35 -44 -34 -17 1 -49 -8 -70 -20
-22 -12 -51 -24 -65 -26 -47 -10 -90 -45 -107 -87 -12 -31 -26 -46 -54 -58
l-39 -18 29 -27 c28 -27 116 -57 173 -58 35 -1 48 15 48 57 0 34 15 55 40 55
9 0 45 -11 79 -25 52 -22 64 -23 75 -12 19 19 193 64 296 77 46 5 126 10 176
10 51 0 99 3 108 6 18 7 41 102 32 137 -14 56 -38 71 -128 79 -45 4 -103 10
-128 13 -40 6 -48 4 -69 -19z"/>
</g>
</svg>
